<svg width="14" height="12" viewBox="0 0 14 12" fill="none" xmlns="http://www.w3.org/2000/svg">
    <g id="logout">
        <path id="combo shape" fill-rule="evenodd" clip-rule="evenodd"
            d="M3.49992 0.164062C1.75102 0.164062 0.333252 1.58183 0.333252 3.33073V8.66406C0.333252 10.413 1.75102 11.8307 3.49992 11.8307H8.33325C10.0822 11.8307 11.4999 10.413 11.4999 8.66406C11.4999 8.38792 11.2761 8.16406 10.9999 8.16406C10.7238 8.16406 10.4999 8.38792 10.4999 8.66406C10.4999 9.86068 9.52987 10.8307 8.33325 10.8307H5.30933C5.84097 10.2643 6.16659 9.5022 6.16659 8.66406V3.33073C6.16659 2.49259 5.84097 1.7305 5.30933 1.16406H8.33325C9.52987 1.16406 10.4999 2.13411 10.4999 3.33073C10.4999 3.60687 10.7238 3.83073 10.9999 3.83073C11.2761 3.83073 11.4999 3.60687 11.4999 3.33073C11.4999 1.58183 10.0822 0.164062 8.33325 0.164062H3.49992ZM11.7642 7.68428C11.569 7.48902 11.569 7.17244 11.7642 6.97718L12.244 6.4974H8.16659C7.89044 6.4974 7.66659 6.27354 7.66659 5.9974C7.66659 5.72125 7.89044 5.4974 8.16659 5.4974H12.244L11.7642 5.01762C11.569 4.82235 11.569 4.50577 11.7642 4.31051C11.9595 4.11525 12.2761 4.11525 12.4713 4.31051L13.3333 5.17244C13.7889 5.62805 13.7889 6.36674 13.3333 6.82235L12.4713 7.68428C12.2761 7.87954 11.9595 7.87954 11.7642 7.68428Z"
            fill="#577487" />
    </g>
</svg>
    