<svg width="12" height="15" viewBox="0 0 12 15" fill="none" xmlns="http://www.w3.org/2000/svg">
    <path id="Vector" fill-rule="evenodd" clip-rule="evenodd"
        d="M0.857178 14.1842V2.61272C0.857178 2.15807 1.03779 1.72203 1.35928 1.40054C1.68077 1.07905 2.11681 0.898438 2.57146 0.898438L9.42861 0.898438C9.88327 0.898438 10.3193 1.07905 10.6408 1.40054C10.9623 1.72203 11.1429 2.15807 11.1429 2.61272V14.1842C11.143 14.2586 11.1236 14.3317 11.0868 14.3964C11.05 14.4611 10.997 14.5151 10.933 14.5531C10.869 14.591 10.7962 14.6117 10.7218 14.613C10.6474 14.6143 10.5739 14.5962 10.5086 14.5604L6.00004 12.1004L1.49146 14.5604C1.42617 14.5962 1.35271 14.6143 1.2783 14.613C1.20388 14.6117 1.13109 14.591 1.06709 14.5531C1.00308 14.5151 0.950062 14.4611 0.913256 14.3964C0.87645 14.3317 0.857123 14.2586 0.857178 14.1842ZM6.13718 4.41272C6.12465 4.38702 6.10515 4.36536 6.0809 4.3502C6.05665 4.33505 6.02863 4.32701 6.00004 4.32701C5.97144 4.32701 5.94342 4.33505 5.91917 4.3502C5.89493 4.36536 5.87542 4.38702 5.86289 4.41272L5.31946 5.51415C5.30859 5.53643 5.29244 5.55573 5.27243 5.57036C5.25242 5.585 5.22914 5.59454 5.20461 5.59815L3.98746 5.77473C3.95944 5.77898 3.93316 5.79095 3.91157 5.8093C3.88997 5.82765 3.87391 5.85165 3.86519 5.87862C3.85647 5.90558 3.85543 5.93444 3.86219 5.96197C3.86895 5.98949 3.88324 6.01458 3.90346 6.03444L4.78289 6.89244C4.81889 6.92758 4.83518 6.97815 4.82661 7.02787L4.62004 8.23987C4.61538 8.26785 4.61861 8.29659 4.62938 8.32283C4.64015 8.34908 4.65803 8.37181 4.681 8.38846C4.70397 8.40511 4.73113 8.41502 4.75942 8.41709C4.78772 8.41916 4.81603 8.41329 4.84118 8.40015L5.92975 7.82758C5.95157 7.81617 5.97584 7.81021 6.00047 7.81021C6.02509 7.81021 6.04936 7.81617 6.07118 7.82758L7.15975 8.40015C7.18487 8.41306 7.21308 8.41873 7.24124 8.41655C7.26939 8.41437 7.29639 8.40442 7.31922 8.38781C7.34206 8.37119 7.35983 8.34856 7.37057 8.32245C7.38131 8.29633 7.38458 8.26774 7.38004 8.23987L7.17261 7.02701C7.16823 7.00265 7.16985 6.9776 7.17732 6.954C7.18478 6.93041 7.19787 6.90899 7.21547 6.89158L8.09661 6.03358C8.11683 6.01373 8.13112 5.98863 8.13789 5.96111C8.14465 5.93359 8.14361 5.90473 8.13489 5.87776C8.12616 5.8508 8.11011 5.82679 8.08851 5.80844C8.06691 5.79009 8.04063 5.77812 8.01261 5.77387L6.79547 5.5973C6.77094 5.59368 6.74766 5.58414 6.72764 5.56951C6.70763 5.55487 6.69149 5.53558 6.68061 5.5133L6.13718 4.41272Z"
        fill="#577487" />
</svg>
    