<svg width="56" height="56" viewBox="0 0 56 56" fill="none" xmlns="http://www.w3.org/2000/svg">
    <g clip-path="url(#clip0_12241_99969)">
        <rect width="56" height="56" rx="28" fill="#E9F0F3" />
        <path
            d="M8.91431 56.8193V60.9916H45.6765V56.8193C45.6765 50.4194 36.6526 47.171 27.4346 47.1836C18.2715 47.1963 8.91431 50.0439 8.91431 56.8193Z"
            fill="#424242" />
        <path
            d="M27.2955 45.0742H23.4648V49.12C23.4648 50.9509 25.0258 52.4359 26.9495 52.4359H27.6456C29.5694 52.4359 31.1303 50.9509 31.1303 49.12V45.0742H27.2955Z"
            fill="#DBA689" />
        <path d="M31.4468 60.9996H23.1443V47.373L27.2955 52.4355L31.4468 47.373V60.9996Z"
            fill="#424242" />
        <path
            d="M40.8967 29.0801C40.8967 29.0801 43.3815 29.5104 43.3815 32.1893C43.3815 34.5518 41.5675 35.4841 39.7534 35.4841V29.0801H40.8967ZM13.7785 29.0801C13.7785 29.0801 11.2937 29.5104 11.2937 32.1893C11.2937 34.5518 13.1078 35.4841 14.9218 35.4841V29.0801H13.7785Z"
            fill="#DBA689" />
        <path
            d="M27.3377 11.543C16.6221 11.543 13.8208 19.8497 13.8208 31.5187C13.8208 43.6181 21.596 46.7484 27.3377 46.7484C32.995 46.7484 40.8545 43.7109 40.8545 31.5187C40.8588 19.8497 38.0533 11.543 27.3377 11.543Z"
            fill="#FADCBC" />
        <path
            d="M29.2276 36.6487C28.5611 36.8386 27.8692 36.9272 27.3376 36.9272C26.8061 36.9272 26.1142 36.8344 25.4476 36.6487C25.165 36.5686 25.0511 36.8386 25.1523 37.0158C25.3633 37.387 26.2155 38.1379 27.3376 38.1379C28.4598 38.1379 29.312 37.387 29.523 37.0158C29.6242 36.8344 29.5145 36.5644 29.2276 36.6487Z"
            fill="#DBA689" />
        <path
            d="M27.6625 10.021C27.6625 10.021 27.4515 10.0126 27.3629 10.0168C27.2744 10.0168 27.0634 10.021 27.0634 10.021C15.4998 10.2446 12.0151 17.2013 12.0151 22.0234C12.0151 26.7104 12.0194 30.1571 12.0194 30.1571C12.0194 30.1571 12.205 29.9673 12.5425 29.7015C12.9053 29.4188 13.3061 29.2627 13.3061 29.2627L13.8883 33.1777L17.74 25.1284C17.7653 25.0777 17.8159 25.0482 17.8708 25.0566L20.1531 25.3098C22.4481 25.5629 24.7558 25.6895 27.0592 25.6937V25.6979C27.1604 25.6979 27.2575 25.6937 27.3587 25.6937C27.46 25.6937 27.557 25.6979 27.6583 25.6979V25.6895C29.9617 25.681 32.2694 25.5587 34.5644 25.3056L36.8467 25.0524C36.9015 25.0482 36.9522 25.0777 36.9775 25.1241L40.8292 33.1735L41.4114 29.2585C41.4114 29.2585 41.8122 29.4188 42.175 29.6973C42.5167 29.9631 42.6981 30.1529 42.6981 30.1529C42.6981 30.1529 42.7023 26.7104 42.7023 22.0191C42.7108 17.2013 39.2261 10.2446 27.6625 10.021Z"
            fill="#424242" />
        <path d="M27.3081 7L6.27344 10.8897L27.363 7.00844L27.3081 7Z" fill="#262626" />
        <path d="M27.4263 7.00422L27.4137 7L27.363 7.00844L27.4263 7.02109V7.00422Z" fill="#424143" />
        <path d="M27.5443 7L48.5832 10.8897L27.4937 7.00844L27.5443 7Z" fill="#262626" />
        <path
            d="M48.5916 11.9622L48.5832 10.8906L27.443 13.9534H27.4177L6.27333 10.8906L6.26489 11.9622L14.7319 13.443L14.0063 15.4933C15.5588 16.1767 21.1824 18.4464 27.4261 18.6109C33.6699 18.4422 39.0952 16.1767 40.6477 15.4933L39.9221 13.443L48.5916 11.9622Z"
            fill="#262626" />
        <path d="M27.4263 7.00422L27.4431 7L27.4938 7.00844L27.4263 7.02109V7.00422Z" fill="#424143" />
        <path
            d="M27.4937 7.00781L27.4263 7.02047L27.363 7.00781L6.27344 10.8891L27.4136 13.9519L27.4263 13.9477L27.4431 13.9519L48.5833 10.8891L27.4937 7.00781Z"
            fill="#424143" />
        <path
            d="M48.9673 26.3633C48.5412 26.3633 48.1994 26.7092 48.1994 27.1311V30.4344C48.1994 30.638 48.2803 30.8333 48.4243 30.9773C48.5683 31.1213 48.7636 31.2022 48.9673 31.2022C49.1709 31.2022 49.3662 31.1213 49.5102 30.9773C49.6542 30.8333 49.7351 30.638 49.7351 30.4344V27.1311C49.7351 26.7092 49.3933 26.3633 48.9673 26.3633ZM47.4316 26.3633C47.0055 26.3633 46.6638 26.7092 46.6638 27.1311V30.4344C46.6638 30.638 46.7447 30.8333 46.8887 30.9773C47.0327 31.1213 47.228 31.2022 47.4316 31.2022C47.6353 31.2022 47.8306 31.1213 47.9746 30.9773C48.1185 30.8333 48.1994 30.638 48.1994 30.4344V27.1311C48.1994 26.7092 47.8577 26.3633 47.4316 26.3633Z"
            fill="#FBC11B" />
        <path
            d="M47.9209 26.3633C47.4948 26.3633 47.1531 26.7092 47.1531 27.1311V30.4344C47.1531 30.638 47.234 30.8333 47.378 30.9773C47.522 31.1213 47.7173 31.2022 47.9209 31.2022C48.1245 31.2022 48.3198 31.1213 48.4638 30.9773C48.6078 30.8333 48.6887 30.638 48.6887 30.4344V27.1311C48.6887 26.7092 48.347 26.3633 47.9209 26.3633Z"
            fill="#E49500" />
        <path
            d="M48.5073 26.3633C48.0812 26.3633 47.7395 26.7092 47.7395 27.1311V30.4344C47.7395 30.8605 48.0854 31.2022 48.5073 31.2022C48.9292 31.2022 49.2751 30.8562 49.2751 30.4344V27.1311C49.2751 26.7092 48.9334 26.3633 48.5073 26.3633Z"
            fill="#E49500" />
        <path
            d="M48.1995 26.3633C47.7734 26.3633 47.4316 26.7092 47.4316 27.1311V31.1473C47.4316 31.351 47.5125 31.5463 47.6565 31.6903C47.8005 31.8343 47.9958 31.9152 48.1995 31.9152C48.4031 31.9152 48.5984 31.8343 48.7424 31.6903C48.8864 31.5463 48.9673 31.351 48.9673 31.1473V27.1311C48.9673 26.7092 48.6255 26.3633 48.1995 26.3633Z"
            fill="#FBC11B" />
        <path
            d="M48.1994 27.0135C48.6794 27.0135 49.0684 26.6244 49.0684 26.1445C49.0684 25.6645 48.6794 25.2754 48.1994 25.2754C47.7194 25.2754 47.3303 25.6645 47.3303 26.1445C47.3303 26.6244 47.7194 27.0135 48.1994 27.0135Z"
            fill="#E49500" />
        <path
            d="M48.1994 26.7909C48.6794 26.7909 49.0684 26.4018 49.0684 25.9218C49.0684 25.4418 48.6794 25.0527 48.1994 25.0527C47.7194 25.0527 47.3303 25.4418 47.3303 25.9218C47.3303 26.4018 47.7194 26.7909 48.1994 26.7909Z"
            fill="#FBC11B" />
        <path
            d="M47.8196 10.9863V25.7309H47.828C47.8449 25.9249 48.0052 26.081 48.2035 26.081C48.4018 26.081 48.5621 25.9291 48.579 25.7309H48.5874V10.9863H47.8196Z"
            fill="#262626" />
    </g>
    <defs>
        <clipPath id="clip0_12241_99969">
            <rect width="56" height="56" rx="28" fill="white" />
        </clipPath>
    </defs>
</svg>
    