<svg version="1.0" xmlns="http://www.w3.org/2000/svg"
    width="1024.000000pt" height="1024.000000pt" viewBox="0 0 1024.000000 1024.000000"
    preserveAspectRatio="xMidYMid meet">

    <g transform="translate(0.000000,1024.000000) scale(0.100000,-0.100000)"
        fill="#000000" stroke="none">
        <path
            d="M5084 7940 c-44 -84 -56 -118 -56 -170 -1 -53 6 -75 56 -165 9 -16
16 -39 16 -50 0 -16 -4 -14 -19 12 -11 17 -44 51 -73 74 l-53 42 -3 -39 c-5
-63 18 -114 64 -149 52 -37 63 -60 70 -139 l5 -61 -26 53 c-21 41 -38 59 -78
82 -47 27 -53 28 -59 12 -21 -53 23 -141 92 -183 26 -16 52 -40 58 -54 24 -52
8 -76 -21 -32 -17 27 -125 87 -155 87 -20 0 -21 -2 -7 -47 9 -30 28 -60 49
-80 36 -34 103 -57 130 -47 16 6 17 -14 15 -238 -1 -135 -4 -250 -8 -256 -3
-6 -19 13 -34 42 -15 29 -53 83 -84 120 -55 67 -56 68 -44 105 26 88 10 134
-71 205 l-53 46 -3 -67 c-3 -59 1 -75 26 -125 l30 -57 -67 43 c-36 24 -78 50
-93 59 -25 15 -26 20 -21 75 7 75 -12 118 -79 174 -55 46 -62 44 -73 -24 -9
-52 1 -90 36 -138 17 -23 28 -44 26 -47 -3 -2 -30 7 -59 20 -30 14 -73 31 -96
38 -42 12 -42 13 -42 59 0 61 -30 107 -95 142 -61 34 -65 34 -65 6 0 -46 21
-95 57 -137 l37 -43 -32 16 c-17 9 -52 19 -77 23 -27 3 -45 11 -45 19 0 19
-48 73 -81 89 -32 17 -119 20 -119 4 0 -12 56 -114 84 -152 23 -32 86 -71 129
-81 16 -4 57 1 92 9 59 15 69 15 120 0 50 -14 67 -35 29 -35 -25 0 -74 -30
-74 -44 0 -38 147 -48 219 -16 24 11 50 20 58 20 17 0 143 -81 163 -105 11
-13 8 -15 -17 -15 -49 0 -94 -20 -104 -48 -5 -13 -7 -27 -4 -30 3 -4 36 -6 74
-6 51 0 76 5 104 21 l36 22 41 -42 c23 -23 69 -91 103 -151 63 -110 86 -132
122 -113 27 14 39 30 85 117 22 41 60 100 84 131 l45 57 47 -24 c26 -13 64
-24 85 -24 40 0 89 17 89 32 0 21 -43 47 -87 53 -26 4 -52 8 -57 9 -5 1 24 23
65 48 122 75 114 73 172 47 64 -27 148 -29 195 -5 33 17 33 18 16 37 -10 11
-37 25 -62 32 l-44 13 56 19 c53 18 58 18 109 2 73 -23 104 -21 163 8 63 31
93 63 139 147 42 78 39 84 -46 76 -53 -5 -79 -23 -113 -77 -18 -28 -33 -37
-84 -51 -34 -10 -62 -15 -62 -13 0 2 14 22 31 43 23 29 33 53 37 90 2 27 1 50
-4 50 -5 0 -33 -14 -62 -31 -69 -39 -94 -79 -89 -140 l4 -46 -79 -27 c-43 -16
-81 -32 -84 -37 -6 -10 -44 -12 -44 -3 0 3 11 19 24 35 31 36 48 112 36 163
-4 21 -11 40 -13 43 -9 9 -43 -15 -80 -56 -42 -47 -61 -108 -53 -166 l7 -42
-86 -56 c-46 -31 -87 -57 -91 -57 -3 0 3 12 14 28 30 42 42 89 42 160 l0 65
-66 -65 c-62 -60 -67 -69 -72 -116 -2 -28 1 -65 7 -82 10 -31 8 -35 -43 -97
-30 -36 -70 -93 -88 -127 l-33 -61 -3 245 c-1 134 0 250 3 257 2 8 21 13 43
13 52 0 100 34 128 90 33 63 32 84 -3 75 -58 -14 -124 -49 -148 -77 -23 -28
-25 -28 -25 -8 0 38 33 81 81 105 52 27 79 76 79 145 0 39 0 39 -27 29 -48
-18 -90 -57 -113 -104 -12 -25 -24 -44 -27 -42 -2 3 1 35 7 73 9 59 15 73 41
94 91 72 92 74 97 133 7 85 0 94 -44 55 -65 -59 -79 -73 -97 -98 l-18 -25 5
36 c2 20 19 57 37 82 46 66 51 137 15 209 -14 29 -36 66 -49 83 l-24 29 -19
-34z m-997 -846 c-3 -3 -12 -4 -19 -1 -8 3 -5 6 6 6 11 1 17 -2 13 -5z" />
        <path
            d="M4823 7531 c2 -66 -55 -111 -141 -111 -55 0 -89 -23 -61 -41 24 -15
112 -10 155 10 67 31 110 112 85 160 -20 36 -40 26 -38 -18z" />
        <path
            d="M5370 7550 c-23 -44 33 -140 97 -166 59 -25 143 -15 143 17 0 16 -8
19 -57 19 -92 0 -142 40 -146 116 -2 38 -20 45 -37 14z" />
        <path
            d="M4632 7548 c-29 -29 -6 -68 40 -68 21 0 29 6 34 25 4 15 1 32 -6 40
-15 18 -51 20 -68 3z" />
        <path
            d="M5531 7546 c-7 -8 -11 -25 -9 -38 2 -18 9 -23 32 -23 36 0 56 27 40
53 -14 22 -48 27 -63 8z" />
        <path
            d="M6274 6931 c-53 -33 -62 -44 -73 -84 -10 -34 -10 -50 -1 -66 17 -32
4 -59 -33 -66 -18 -4 -41 -9 -51 -12 -17 -5 -16 -1 7 26 33 39 39 63 35 124
l-3 47 -51 -34 c-65 -44 -86 -77 -87 -136 -1 -47 -1 -48 -54 -74 -29 -14 -56
-26 -58 -26 -3 0 4 18 15 39 24 48 34 109 23 139 l-9 23 -54 -38 c-68 -47 -91
-98 -74 -163 6 -22 8 -40 5 -40 -4 0 -33 -15 -64 -34 l-56 -34 20 36 c10 20
19 52 19 71 0 35 -19 101 -30 101 -12 -1 -73 -95 -82 -128 -6 -20 -8 -55 -4
-79 5 -42 5 -42 -54 -88 -65 -50 -81 -79 -57 -103 14 -13 22 -9 77 41 l62 56
29 -34 c38 -43 97 -59 170 -45 48 9 99 33 99 46 0 3 -28 18 -62 34 -49 24 -77
30 -128 30 -73 1 -71 4 34 51 l59 27 55 -36 c46 -31 65 -37 122 -40 79 -5 116
9 101 37 -16 29 -62 54 -131 71 l-65 17 60 22 c96 36 106 36 176 2 68 -33 117
-39 180 -20 33 10 37 14 28 31 -13 24 -97 78 -121 78 -33 0 -19 17 25 29 31 9
54 9 91 1 82 -18 156 10 195 74 33 52 28 63 -29 71 -71 10 -124 -2 -180 -40
-28 -19 -50 -33 -50 -31 0 1 9 21 21 45 12 26 19 57 17 81 l-3 40 -61 -39z" />
        <path
            d="M3200 6945 c-71 -32 -110 -87 -110 -155 0 -116 101 -195 204 -159 21
8 48 26 59 40 23 32 25 95 4 117 -20 19 -51 8 -44 -16 3 -9 9 -27 12 -39 17
-55 -92 -87 -148 -43 -60 47 -56 147 8 196 103 79 265 12 359 -150 25 -43 45
-66 57 -66 34 0 30 20 -16 90 -58 88 -119 150 -170 175 -53 26 -168 31 -215
10z" />
        <path
            d="M3880 6924 c0 -41 12 -68 49 -108 l26 -28 -25 7 c-14 4 -34 16 -45
26 -11 10 -37 25 -57 34 -40 16 -154 20 -176 6 -33 -21 60 -125 122 -136 19
-4 59 -2 89 5 46 9 61 8 94 -5 l38 -16 -45 -20 c-50 -23 -90 -56 -90 -75 0
-16 61 -34 111 -34 22 0 61 13 95 31 55 29 62 31 104 20 56 -15 130 -44 130
-52 0 -3 -25 -9 -56 -13 -67 -8 -108 -27 -131 -62 -19 -30 -11 -39 48 -49 50
-9 114 10 176 50 l52 35 70 -33 c39 -17 70 -35 71 -39 0 -5 -28 -8 -62 -8 -68
0 -130 -23 -161 -57 -17 -19 -16 -20 20 -36 87 -36 146 -29 216 25 43 34 49
32 121 -36 30 -29 41 -34 52 -25 24 20 16 36 -50 96 l-65 59 6 55 c6 59 -10
102 -60 163 l-24 30 -13 -39 c-14 -42 -15 -78 -5 -126 l7 -30 -49 24 -48 25 0
72 0 73 -60 53 c-68 61 -73 58 -74 -32 -1 -39 5 -60 24 -89 15 -20 25 -39 23
-40 -2 -2 -31 10 -65 25 l-61 28 5 41 c8 60 -12 97 -74 137 -29 19 -56 34 -58
34 -3 0 -5 -23 -5 -51 0 -53 10 -80 43 -116 11 -13 19 -23 16 -23 -2 1 -26 7
-54 14 l-50 13 0 67 c-1 78 -19 109 -86 143 -24 12 -47 23 -51 23 -5 0 -8 -16
-8 -36z" />
        <path
            d="M6845 6947 c-84 -33 -137 -81 -204 -186 -45 -70 -49 -86 -25 -95 23
-9 31 -1 63 62 36 71 102 138 161 165 63 29 144 29 191 -1 109 -67 76 -222
-47 -222 -60 0 -99 35 -84 75 15 38 13 45 -14 45 -62 0 -39 -122 29 -154 121
-58 247 50 221 189 -8 43 -59 103 -103 121 -39 17 -147 17 -188 1z" />
        <path
            d="M2310 6694 c-93 -25 -161 -65 -236 -139 -77 -76 -130 -169 -158 -280
-20 -76 -20 -240 -1 -325 40 -170 80 -243 347 -636 225 -331 289 -506 275
-757 -11 -202 -54 -321 -157 -431 -110 -117 -216 -166 -357 -167 -44 0 -101 5
-124 11 -207 56 -358 252 -359 466 0 44 6 102 14 128 17 55 58 113 92 128 18
8 24 18 22 37 -2 20 5 29 37 47 59 34 109 40 156 18 39 -17 40 -17 67 3 30 22
39 61 22 93 -30 56 -164 76 -266 40 l-56 -19 6 24 c28 111 127 205 232 221 92
14 210 -49 254 -136 62 -122 10 -281 -117 -352 -39 -22 -72 -31 -140 -38 -99
-10 -113 -20 -113 -82 0 -49 18 -58 120 -58 96 0 178 25 257 77 67 44 98 82
137 163 29 60 31 73 31 175 0 100 -3 116 -29 173 -37 80 -122 161 -203 193
-48 19 -77 23 -168 24 -102 0 -114 -2 -175 -31 -134 -63 -228 -195 -238 -332
-2 -37 0 -83 5 -102 9 -32 7 -42 -26 -96 -49 -81 -70 -150 -77 -253 -19 -282
167 -552 441 -642 57 -19 92 -24 190 -24 106 0 130 3 209 29 193 63 332 195
445 422 64 130 76 193 76 394 0 170 -1 178 -33 277 -51 160 -137 318 -328 604
-257 383 -314 515 -301 687 18 238 246 392 460 312 64 -24 147 -106 177 -174
48 -106 43 -274 -9 -381 -36 -72 -77 -114 -151 -152 -50 -25 -55 -31 -58 -64
-4 -50 35 -83 90 -76 217 29 378 350 313 625 -25 105 -62 170 -141 250 -125
125 -287 170 -454 126z" />
        <path
            d="M6435 6510 c-9 -10 -24 -49 -31 -87 -8 -37 -26 -87 -40 -111 -96
-164 -323 -293 -594 -337 -112 -18 -386 -31 -451 -21 l-45 7 48 182 c26 100
48 190 48 199 0 10 -13 32 -29 50 -25 28 -36 33 -73 33 -60 0 -124 -30 -138
-65 -18 -43 -10 -64 25 -68 17 -2 34 -7 38 -11 6 -6 -50 -222 -77 -297 -8 -23
-373 58 -731 162 -517 150 -645 177 -825 178 -158 0 -216 -17 -303 -88 -123
-100 -152 -239 -70 -337 49 -58 130 -76 193 -44 81 42 60 165 -28 165 -17 0
-34 -5 -38 -12 -13 -20 -22 24 -11 55 12 37 62 73 133 99 51 17 75 20 174 15
150 -6 209 -20 848 -201 234 -67 397 -104 517 -119 50 -6 91 -12 93 -13 2 -1
-9 -44 -24 -94 -24 -81 -29 -90 -40 -74 -60 88 -159 103 -277 42 -53 -27 -154
-128 -200 -200 -80 -124 -142 -318 -157 -488 l-8 -97 -43 -41 c-55 -52 -101
-77 -124 -68 -12 4 -15 13 -11 29 4 12 24 87 45 167 22 80 56 204 76 275 30
105 38 148 39 225 1 81 -2 101 -21 137 -45 83 -137 125 -232 104 -49 -10 -122
-49 -136 -71 -13 -20 -27 -10 -21 15 5 19 0 32 -18 50 -30 30 -65 32 -98 5
-33 -25 -37 -38 -97 -265 -185 -703 -176 -675 -221 -675 -46 0 -70 16 -70 47
0 28 73 318 117 463 48 161 101 383 96 399 -12 34 -36 51 -73 51 -51 0 -87
-30 -95 -80 -4 -22 -8 -40 -10 -40 -1 0 -22 20 -46 44 -55 54 -102 65 -184 42
-107 -32 -230 -160 -315 -331 -57 -114 -86 -217 -101 -358 -13 -119 4 -215 54
-297 72 -121 223 -135 337 -33 26 24 51 43 54 43 3 0 6 -9 6 -21 0 -11 13 -34
29 -50 l29 -29 162 0 c89 0 169 4 179 10 24 12 44 63 76 190 55 215 147 524
171 571 48 97 131 167 180 155 27 -7 64 -60 64 -92 0 -11 -29 -124 -65 -250
-131 -460 -134 -483 -70 -552 31 -35 37 -37 108 -40 87 -5 129 10 217 76 49
38 55 40 64 24 32 -60 106 -104 176 -104 65 1 116 24 174 80 29 28 50 42 53
35 27 -73 95 -116 182 -114 80 1 151 30 246 101 69 51 81 57 90 43 37 -58 76
-100 115 -121 62 -33 170 -28 249 12 145 74 234 214 291 456 25 103 33 120 60
120 9 0 38 11 63 24 26 13 47 20 47 15 0 -4 -9 -47 -21 -96 -30 -127 -25 -294
12 -373 96 -205 317 -245 483 -86 41 40 68 79 100 145 24 50 46 96 48 102 3 8
23 7 68 -2 36 -6 67 -13 69 -15 6 -5 -164 -580 -197 -665 l-11 -27 -68 15
c-110 24 -301 12 -435 -26 -96 -28 -322 -112 -387 -145 -14 -8 -36 -17 -48
-20 -20 -6 -23 -4 -23 21 0 15 -7 52 -15 82 -65 246 -398 356 -667 220 -71
-36 -159 -115 -195 -176 -22 -38 -27 -41 -50 -32 -29 11 -683 179 -788 202
-239 54 -337 67 -493 67 -249 0 -400 -47 -511 -157 -65 -66 -98 -126 -111
-206 -15 -94 25 -211 85 -251 36 -24 87 -20 113 7 31 33 27 59 -13 107 -45 54
-47 105 -7 180 32 63 102 116 201 151 60 22 82 24 241 24 143 0 195 -4 285
-23 100 -21 964 -233 974 -239 2 -2 -1 -28 -8 -58 -9 -40 -17 -55 -29 -55 -9
0 -108 18 -220 40 -365 71 -550 89 -727 71 -343 -35 -583 -170 -680 -382 -24
-53 -30 -77 -30 -139 0 -65 4 -82 29 -128 50 -89 119 -121 190 -87 66 31 86
106 41 151 -20 20 -34 25 -63 22 l-37 -3 0 55 c1 71 25 120 94 187 69 69 203
135 326 163 188 42 378 35 695 -25 74 -14 196 -35 271 -47 l136 -23 36 -75
c73 -153 177 -247 330 -296 67 -22 107 -28 219 -32 202 -7 383 24 638 110 128
43 391 168 490 231 30 20 56 34 58 33 1 -2 -2 -23 -7 -47 -16 -66 -13 -180 5
-232 19 -57 92 -140 148 -169 63 -33 202 -37 278 -8 171 64 275 285 228 485
-5 22 -7 41 -5 44 3 2 31 -10 62 -26 77 -41 167 -70 253 -84 187 -29 369 60
447 219 25 51 28 67 28 162 0 93 -3 112 -27 162 -37 79 -96 140 -171 174 -55
26 -73 29 -162 29 -90 0 -105 -3 -152 -27 -65 -35 -96 -77 -96 -131 0 -50 30
-80 77 -75 24 2 35 11 46 35 20 42 58 63 117 63 91 -1 163 -51 204 -144 46
-106 -9 -238 -126 -299 -48 -25 -186 -29 -250 -8 -66 22 -222 104 -350 183
-66 41 -147 89 -180 108 -33 18 -61 34 -62 35 -2 1 11 44 29 96 17 52 68 220
113 374 l81 279 49 18 c28 9 58 22 68 28 11 6 21 10 22 8 2 -2 -9 -46 -25 -98
-37 -116 -41 -214 -10 -252 23 -30 78 -58 114 -58 45 0 130 38 186 85 l55 45
17 -35 c59 -113 258 -113 358 2 17 19 32 34 33 32 1 -2 11 -22 22 -43 43 -84
187 -102 315 -39 60 29 151 110 208 182 l19 24 36 -27 c80 -61 185 -81 281
-52 118 36 185 146 123 204 -33 31 -64 28 -101 -12 -41 -44 -69 -58 -122 -58
-73 -2 -113 33 -167 146 -51 105 -75 123 -126 95 -37 -21 -47 -59 -32 -119 12
-45 11 -54 -4 -78 -87 -136 -211 -217 -271 -177 -14 9 -24 25 -24 38 0 33 99
416 196 760 l28 97 -21 28 c-15 20 -30 28 -60 30 -35 3 -44 -1 -72 -33 -17
-20 -31 -45 -31 -55 0 -28 -15 -25 -28 6 -28 60 -144 72 -240 23 -187 -93
-346 -388 -384 -709 l-11 -95 -46 -43 c-54 -49 -78 -59 -98 -40 -12 13 -7 37
36 189 27 96 70 251 96 344 25 94 52 190 60 215 29 97 29 107 0 126 -22 14
-32 15 -65 5 -54 -16 -71 -48 -125 -246 -49 -178 -66 -218 -117 -260 -30 -25
-108 -70 -108 -61 0 2 6 22 14 44 8 22 19 74 26 115 22 145 -12 237 -142 393
-96 115 -118 160 -118 242 1 76 25 127 89 184 83 75 178 95 290 62 90 -26 170
-120 171 -198 l0 -29 -77 7 c-290 25 -326 26 -349 11 -31 -20 -40 -69 -20
-100 14 -22 24 -25 74 -25 31 0 111 -7 177 -15 321 -39 442 -47 513 -35 140
23 241 93 290 199 70 151 -2 361 -124 361 -62 0 -97 -76 -53 -116 58 -53 65
-153 15 -218 -42 -56 -97 -79 -196 -84 l-86 -4 -11 75 c-6 42 -20 95 -33 119
-99 193 -369 270 -586 169 -182 -85 -287 -311 -226 -486 18 -52 63 -120 157
-240 64 -81 85 -140 85 -234 -1 -64 -21 -196 -33 -207 -3 -3 -36 0 -74 8 l-68
13 5 40 c3 22 5 92 5 155 0 100 -4 127 -29 202 -69 211 -153 261 -311 184 -68
-32 -110 -62 -321 -228 -55 -43 -105 -78 -111 -78 -9 0 -13 18 -13 58 0 136
-59 226 -167 258 -250 73 -523 -240 -575 -659 l-11 -88 -75 -70 c-113 -106
-186 -134 -227 -89 -22 24 -30 -17 90 435 48 182 99 377 114 434 l27 105 234
1 c252 2 353 14 520 62 350 101 581 338 571 586 -2 58 -78 89 -116 47z m111
-981 c-38 -77 -40 -86 -40 -172 0 -111 21 -162 94 -231 l48 -45 -23 -54 c-54
-134 -120 -207 -186 -207 -29 0 -43 7 -67 34 -53 61 -66 111 -59 239 11 224
91 404 221 498 21 16 42 27 46 24 3 -2 -12 -41 -34 -86z m-669 32 c17 -25 23
-48 23 -87 l0 -54 -37 0 c-46 0 -59 -8 -71 -41 -14 -35 8 -82 46 -98 l30 -13
-24 -91 c-44 -166 -128 -306 -202 -336 -46 -19 -92 -10 -116 22 -34 46 -35
193 -2 321 29 110 97 260 147 320 84 101 162 122 206 57z m-2522 -3 c25 -30
27 -38 22 -93 -8 -81 -100 -413 -139 -497 -34 -76 -94 -138 -132 -138 -115 0
-133 233 -35 463 65 154 177 297 233 297 15 0 34 -12 51 -32z m1542 17 c12 -8
27 -31 33 -50 10 -30 6 -55 -29 -192 -78 -310 -116 -401 -195 -470 -41 -37
-61 -40 -95 -17 -114 80 -18 500 157 683 61 65 88 74 129 46z m3131 -8 c48
-51 46 -66 -28 -347 -62 -236 -134 -366 -216 -386 -40 -10 -76 23 -92 82 -35
140 84 477 218 616 61 63 85 70 118 35z m-1340 -227 c1 -45 -2 -59 -8 -45 -5
11 -8 52 -8 90 0 50 2 63 8 45 4 -14 8 -54 8 -90z m-1220 -1024 c91 -46 143
-145 126 -236 l-9 -44 -88 -28 c-138 -44 -262 -61 -414 -56 -73 3 -135 7 -138
10 -3 3 -3 24 1 47 l7 43 61 -7 c34 -4 80 -11 103 -16 62 -13 197 -13 222 1
31 16 43 54 29 85 -13 29 -22 32 -139 39 -47 3 -119 13 -158 22 l-73 17 39 39
c79 82 179 120 303 115 57 -3 88 -10 128 -31z m1191 -150 c7 -5 3 -23 -13 -54
-119 -231 -746 -517 -1181 -539 -191 -10 -309 23 -406 114 -40 37 -89 106 -89
125 0 2 75 3 168 4 250 1 346 25 732 186 245 102 394 155 477 168 62 10 294 6
312 -4z m270 -135 c123 -120 166 -253 127 -385 -42 -139 -169 -210 -275 -154
-67 34 -85 66 -89 151 -3 62 3 95 42 232 25 88 53 179 62 202 l15 42 35 -21
c20 -12 57 -42 83 -67z" />
        <path
            d="M5781 6230 c-36 -9 -112 -58 -118 -76 -5 -15 109 -54 156 -54 20 0
53 5 74 11 40 11 107 63 107 83 0 10 -44 21 -165 41 -11 2 -35 0 -54 -5z" />
        <path
            d="M8340 4584 c0 -23 109 -153 144 -171 42 -22 126 -22 160 0 23 16 86
100 86 116 0 4 -53 6 -117 6 -112 0 -121 2 -187 33 -78 36 -86 38 -86 16z" />
        <path
            d="M8197 4553 c-4 -3 -7 -18 -7 -32 0 -54 23 -105 68 -154 l47 -49 12
53 c12 52 9 97 -9 131 -13 27 -97 66 -111 51z" />
        <path
            d="M6168 4504 c-29 -15 -45 -39 -59 -86 l-8 -29 67 6 c37 4 76 12 87 17
29 15 85 70 85 84 0 27 -127 33 -172 8z" />
        <path
            d="M3765 3848 c-49 -17 -90 -53 -110 -97 -10 -23 -16 -43 -14 -45 4 -4
100 11 219 34 25 5 66 9 92 9 63 1 70 17 25 56 -58 50 -142 67 -212 43z" />
        <path
            d="M7738 3586 c-22 -16 -23 -36 -3 -36 12 0 14 -10 10 -47 -4 -43 7 -85
18 -73 2 3 7 42 10 88 5 86 0 95 -35 68z" />
        <path
            d="M7902 3584 c-25 -17 -29 -44 -7 -44 8 0 15 5 15 10 0 6 9 10 20 10
37 0 34 -28 -9 -75 -22 -24 -41 -46 -41 -49 0 -2 25 -3 55 -2 37 1 55 5 55 14
0 6 -12 12 -26 12 l-26 0 26 31 c32 38 33 53 1 84 -28 29 -33 30 -63 9z" />
        <path
            d="M2357 3583 c-4 -3 -7 -33 -7 -65 l0 -60 -31 7 c-24 6 -30 4 -27 -6 3
-9 20 -14 44 -14 l39 0 3 73 c3 66 -3 84 -21 65z" />
        <path
            d="M3740 3570 c-31 -31 -23 -51 25 -67 17 -5 30 -16 30 -24 0 -15 -28
-17 -57 -4 -13 5 -18 3 -18 -8 0 -27 75 -38 98 -15 16 16 15 57 0 63 -69 24
-70 25 -58 40 7 9 21 13 31 10 25 -8 46 4 28 16 -24 15 -58 10 -79 -11z" />
        <path
            d="M3954 3574 c3 -9 6 -42 6 -75 0 -33 4 -59 10 -59 6 0 10 20 10 45 0
25 4 45 9 45 5 0 27 -20 50 -45 23 -25 46 -45 51 -45 6 0 10 33 10 75 0 43 -4
75 -10 75 -5 0 -10 -25 -10 -55 l0 -55 -53 55 c-52 54 -86 72 -73 39z" />
        <path
            d="M4230 3515 l0 -75 45 0 c52 0 61 17 13 22 -41 4 -45 32 -5 36 38 5
36 32 -3 32 -20 0 -30 5 -30 15 0 10 11 15 35 15 24 0 35 5 35 15 0 11 -12 15
-45 15 l-45 0 0 -75z" />
        <path
            d="M4431 3578 c0 -7 10 -40 22 -73 16 -43 28 -61 42 -63 16 -2 25 10 45
65 14 37 27 71 28 75 2 5 -3 8 -11 8 -10 0 -22 -20 -32 -50 -9 -27 -20 -52
-25 -55 -4 -2 -16 19 -26 47 -18 48 -45 77 -43 46z" />
        <path
            d="M4680 3515 l0 -75 51 0 c57 0 66 23 11 28 -19 2 -32 9 -32 17 0 8 13
15 32 17 46 4 49 28 4 28 -25 0 -36 4 -36 15 0 10 11 15 35 15 24 0 35 5 35
15 0 11 -12 15 -50 15 l-50 0 0 -75z" />
        <path
            d="M7537 3583 c-15 -15 -5 -23 28 -23 24 0 35 -5 35 -15 0 -8 -9 -15
-20 -15 -28 0 -25 -17 5 -24 17 -4 25 -13 25 -27 0 -19 -4 -21 -45 -15 -48 8
-61 -5 -26 -24 63 -33 138 35 84 76 -11 8 -13 13 -5 14 15 0 16 32 0 48 -13
13 -70 17 -81 5z" />
        <path
            d="M2467 3562 c-21 -23 -22 -71 -1 -100 17 -25 71 -31 92 -10 18 18 15
94 -4 112 -21 22 -67 20 -87 -2z m72 -16 c30 -36 -9 -105 -43 -77 -22 18 -20
67 2 80 23 14 28 13 41 -3z" />
        <path
            d="M2650 3510 c0 -40 4 -70 10 -70 6 0 10 9 10 20 0 15 7 20 28 20 31 0
62 26 62 53 0 27 -30 47 -71 47 l-39 0 0 -70z m78 26 c5 -25 -12 -39 -37 -31
-14 4 -21 15 -21 31 0 22 4 25 27 22 18 -2 29 -10 31 -22z" />
        <path
            d="M3270 2946 l0 -126 85 0 c84 0 85 0 85 25 0 24 -3 25 -60 25 l-59 0
-3 98 c-3 92 -4 97 -25 100 -23 3 -23 2 -23 -122z" />
        <path
            d="M3577 3063 c-14 -13 -7 -145 9 -179 32 -67 129 -84 181 -32 24 24 43
103 43 181 0 36 -2 38 -27 35 -28 -3 -28 -4 -33 -85 -3 -45 -10 -88 -17 -94
-21 -21 -74 -15 -95 10 -14 18 -18 40 -18 97 0 65 -2 74 -18 74 -10 0 -22 -3
-25 -7z" />
        <path
            d="M3983 3010 l56 -60 -26 -28 c-14 -15 -39 -44 -55 -64 l-30 -38 35 0
c29 0 39 6 62 40 15 22 32 40 36 40 5 0 21 -18 35 -40 22 -34 32 -40 60 -40
19 0 34 3 34 6 0 3 -17 27 -38 53 -59 70 -58 67 -7 132 l46 59 -34 0 c-29 0
-38 -6 -61 -41 l-27 -40 -32 40 c-27 34 -38 40 -71 40 l-38 1 55 -60z" />
        <path
            d="M4323 3054 c-3 -8 -3 -49 -1 -91 5 -73 7 -78 41 -110 43 -39 85 -43
135 -13 42 26 52 54 52 151 0 77 -1 79 -24 79 -23 0 -24 -3 -27 -85 -2 -47 -9
-89 -16 -96 -17 -17 -73 -14 -91 5 -10 10 -17 42 -20 95 -4 71 -7 81 -24 81
-10 0 -21 -7 -25 -16z" />
        <path
            d="M4695 3038 c-3 -18 -5 -73 -3 -123 3 -85 4 -90 26 -93 19 -3 22 1 22
32 0 34 2 36 31 36 22 0 39 -9 57 -30 15 -17 36 -30 49 -30 28 0 28 7 4 40
-19 24 -19 25 0 48 24 31 24 83 1 112 -18 22 -78 38 -149 39 -28 1 -33 -3 -38
-31z m153 -60 c4 -34 -27 -52 -74 -43 -31 5 -34 9 -34 41 l0 35 53 -3 c48 -3
52 -5 55 -30z" />
        <path
            d="M5050 3001 c46 -63 50 -73 50 -125 0 -53 1 -56 25 -56 23 0 25 3 25
48 0 43 6 57 55 122 30 40 55 75 55 77 0 2 -13 3 -30 3 -23 0 -36 -9 -62 -45
-18 -24 -36 -44 -41 -45 -4 0 -20 20 -35 45 -23 39 -31 45 -60 45 l-32 0 50
-69z" />
        <path
            d="M5540 2945 l0 -125 25 0 c23 0 25 4 25 45 l0 45 60 0 60 0 0 -45 c0
-41 2 -45 25 -45 l25 0 0 125 0 125 -25 0 c-24 0 -25 -3 -25 -55 l0 -55 -60 0
-60 0 0 55 c0 52 -1 55 -25 55 l-25 0 0 -125z" />
        <path
            d="M5944 3051 c-66 -40 -82 -106 -44 -169 43 -70 136 -78 197 -17 27 27
33 40 33 78 0 53 -27 93 -76 113 -45 19 -73 18 -110 -5z m111 -56 c42 -41 25
-105 -31 -119 -37 -10 -62 1 -79 35 -20 37 -10 76 24 94 38 21 59 18 86 -10z" />
        <path
            d="M6220 3045 c0 -22 4 -25 40 -25 l40 0 0 -95 c0 -95 0 -95 25 -95 25
0 25 0 25 95 l0 95 40 0 c36 0 40 3 40 25 l0 25 -105 0 -105 0 0 -25z" />
        <path
            d="M6872 2948 l3 -123 83 -3 c82 -3 82 -3 82 23 0 24 -2 25 -60 25 l-60
0 0 100 0 100 -25 0 -26 0 3 -122z" />
        <path
            d="M6552 2943 l3 -118 88 -3 c87 -3 87 -3 87 22 0 24 -3 25 -62 28 -57
3 -63 5 -66 26 -3 21 0 22 52 22 53 0 56 1 56 25 0 24 -3 25 -55 25 -48 0 -55
2 -55 20 0 18 7 20 65 20 63 0 65 1 65 25 0 25 -1 25 -90 25 l-91 0 3 -117z" />
        <path
            d="M4510 2449 l0 -70 46 3 c52 3 73 23 59 54 -4 11 -7 27 -6 37 4 29
-19 47 -60 47 l-39 0 0 -71z m69 38 c13 -16 5 -27 -21 -27 -11 0 -18 7 -18 20
0 23 22 27 39 7z m11 -62 c0 -9 -9 -15 -25 -15 -16 0 -25 6 -25 15 0 9 9 15
25 15 16 0 25 -6 25 -15z" />
        <path
            d="M4782 2455 c-29 -60 -30 -94 -2 -60 17 21 70 19 86 -2 7 -10 16 -14
20 -10 9 8 -51 137 -64 137 -4 0 -22 -29 -40 -65z m58 -12 c0 -7 -9 -13 -20
-13 -23 0 -24 4 -9 32 9 17 13 18 20 7 5 -8 9 -20 9 -26z" />
        <path
            d="M4982 2453 c2 -42 8 -68 16 -71 9 -3 12 15 12 67 0 57 -3 71 -15 71
-13 0 -15 -12 -13 -67z" />
        <path
            d="M5100 2450 c0 -40 4 -70 10 -70 6 0 10 19 10 43 l1 42 37 -43 c20
-23 40 -42 45 -42 8 0 10 102 1 124 -11 29 -24 17 -24 -21 l-1 -38 -34 38
c-20 20 -37 37 -40 37 -3 0 -5 -31 -5 -70z" />
        <path
            d="M5350 2450 l0 -70 35 0 c64 0 97 65 59 118 -11 16 -25 22 -55 22
l-39 0 0 -70z m82 14 c11 -23 10 -29 -11 -46 -33 -26 -45 -18 -49 30 -3 39 -1
42 23 42 18 0 29 -8 37 -26z" />
        <path
            d="M5610 2450 l0 -70 33 0 c48 0 77 24 77 66 0 45 -29 74 -75 74 l-35 0
0 -70z m84 18 c15 -25 -3 -52 -38 -56 -24 -3 -26 -1 -26 38 0 39 2 41 26 38
15 -2 32 -11 38 -20z" />
        <path d="M4250 2485 c-19 -23 -4 -47 27 -43 31 3 44 35 21 49 -19 13 -34 11
-48 -6z" />
        <path d="M5930 2485 c-16 -19 -6 -45 18 -45 29 0 48 26 32 45 -16 19 -34 19
-50 0z" />
    </g>
</svg>